<svg width="24" height="24" viewBox="0 0 24 24" fill="none" xmlns="http://www.w3.org/2000/svg">
<path d="M18.7063 20.0719L21.0454 21.215C21.6265 21.4989 22.3296 21.2464 22.5587 20.6416C23.2285 18.8737 23.755 16.7616 23.9335 14.587C24.1371 12.105 23.8854 9.56714 22.8999 7.37111L22.8985 7.37171C22.8547 7.27709 22.8102 7.18273 22.765 7.08867C22.4259 6.43821 21.7908 5.64042 20.8555 5.11256C19.8012 4.51757 18.3367 4.2483 16.4148 4.96819C16.0071 5.12091 15.592 5.31827 15.1758 5.55369C15.6986 6.44319 16.0732 7.64285 16.1029 9.22471C16.1298 10.6544 15.8979 12.0083 15.5425 13.2145L19.0507 14.517C19.7633 14.7816 20.2298 15.486 20.0968 16.2344C19.9095 17.2874 19.5797 18.3122 19.1185 19.2837C18.9938 19.5464 18.8567 19.8101 18.7063 20.0719Z" fill="#161615"/>
<path d="M7.28906 19.1232C7.57668 19.0365 7.88043 18.9113 8.19922 18.7372C9.54925 17.9996 10.5702 16.7951 11.2961 15.6136C11.7804 14.8252 12.1411 14.0342 12.3849 13.3734C12.4817 13.111 12.7713 12.9686 13.0335 13.066L18.64 15.1476C19.1314 15.33 19.441 15.8241 19.335 16.3374C19.1752 17.1119 18.8956 18.0375 18.4536 18.9687C17.7603 20.4293 16.6798 21.8783 15.0632 22.7943C13.7274 23.5511 12.3612 23.9415 11.0841 24.0002C9.69262 23.7647 8.77976 23.1607 8.1982 22.3542C7.58246 21.5002 7.30867 20.3779 7.28906 19.1232Z" fill="#161615"/>
<path d="M10.6678 0.107452C14.1058 -0.294875 16.6604 0.465762 18.5995 1.83492C19.6298 2.56241 20.495 3.46793 21.2288 4.47763L21.2209 4.47316C19.9693 3.76681 18.2761 3.48687 16.1577 4.28037C13.3138 5.34563 10.2481 8.34743 8.61586 11.4086C7.55718 13.3942 6.51316 16.4389 6.55263 19.1261C6.57242 20.473 6.86506 21.7641 7.60042 22.784C7.85642 23.139 8.16256 23.4563 8.52246 23.7292C5.90361 23.0778 2.6084 21.2638 0.832552 17.0826C-0.71719 13.4338 0.0196717 9.39471 2.02756 6.14835C4.03851 2.89704 7.28598 0.503196 10.6678 0.107452Z" fill="#161615"/>
</svg>
